<?xml version="1.0" encoding="UTF-8" standalone="no"?>
<svg
   xmlns:dc="http://purl.org/dc/elements/1.1/"
   xmlns:cc="http://creativecommons.org/ns#"
   xmlns:rdf="http://www.w3.org/1999/02/22-rdf-syntax-ns#"
   xmlns:svg="http://www.w3.org/2000/svg"
   xmlns="http://www.w3.org/2000/svg"
   xmlns:sodipodi="http://sodipodi.sourceforge.net/DTD/sodipodi-0.dtd"
   xmlns:inkscape="http://www.inkscape.org/namespaces/inkscape"
   version="1.1"
   id="Capa_1"
   x="0px"
   y="0px"
   viewBox="0 0 292.026 292.026"
   preserveAspectRatio="xMidYMid meet"
   style="enable-background:new 0 0 292.026 292.026;"
   xml:space="preserve"
   sodipodi:docname="speaker_on.svg"
   inkscape:version="1.0.2 (e86c870879, 2021-01-15)"><metadata
   id="metadata51"><rdf:RDF><cc:Work
       rdf:about=""><dc:format>image/svg+xml</dc:format><dc:type
         rdf:resource="http://purl.org/dc/dcmitype/StillImage" /><dc:title></dc:title></cc:Work></rdf:RDF></metadata><defs
   id="defs49" /><sodipodi:namedview
   pagecolor="#ff00ff"
   bordercolor="#666666"
   borderopacity="1"
   objecttolerance="10"
   gridtolerance="10"
   guidetolerance="10"
   inkscape:pageopacity="0"
   inkscape:pageshadow="2"
   inkscape:window-width="3840"
   inkscape:window-height="2160"
   id="namedview47"
   showgrid="false"
   inkscape:zoom="3.4517474"
   inkscape:cx="90.244146"
   inkscape:cy="146.013"
   inkscape:window-x="0"
   inkscape:window-y="0"
   inkscape:window-maximized="0"
   inkscape:current-layer="Capa_1" />
<g
   id="g14">
	<g
   id="g12">
		<path
   d="M38.803,234.438l36.819-9.165l-23.051-92.585l-36.819,9.165c-11.13,2.765-17.901,14.038-15.133,25.166l13.018,52.272    C16.405,230.426,27.672,237.209,38.803,234.438z"
   id="path2" />
		<path
   d="M154.252,66.372c-2.768-11.123-11.602-13.566-19.716-5.468l-68.603,68.46l23.05,92.579l93.748,31.354    c10.874,3.635,17.45-2.438,14.675-13.566L154.252,66.372z"
   id="path4" />
		<path
   d="M202.403,159.807l72.358-18.005c7.104-1.766,11.429-8.958,9.657-16.062c-1.766-7.104-8.932-11.443-16.058-9.662    l-72.358,18.015c-7.104,1.766-11.429,8.953-9.663,16.057c1.502,6.038,6.913,10.062,12.857,10.062    C200.244,160.205,201.326,160.075,202.403,159.807z"
   id="path6" />
		<path
   d="M189.939,116.698c3.562,0,7.104-1.424,9.719-4.235l48.752-52.512c4.981-5.364,4.671-13.753-0.693-18.734    c-5.359-4.981-13.748-4.671-18.734,0.699L180.23,94.422c-4.981,5.37-4.671,13.758,0.693,18.734    C183.472,115.528,186.713,116.698,189.939,116.698z"
   id="path8" />
		<path
   d="M283.119,199.372l-67.688-23.514c-6.907-2.408-14.468,1.253-16.87,8.171c-2.402,6.913,1.248,14.468,8.171,16.87    l67.684,23.524c1.444,0.502,2.91,0.74,4.354,0.74c5.484,0,10.615-3.433,12.516-8.911    C293.693,209.33,290.043,201.774,283.119,199.372z"
   id="path10" />
	</g>
</g>
<g
   id="g16">
</g>
<g
   id="g18">
</g>
<g
   id="g20">
</g>
<g
   id="g22">
</g>
<g
   id="g24">
</g>
<g
   id="g26">
</g>
<g
   id="g28">
</g>
<g
   id="g30">
</g>
<g
   id="g32">
</g>
<g
   id="g34">
</g>
<g
   id="g36">
</g>
<g
   id="g38">
</g>
<g
   id="g40">
</g>
<g
   id="g42">
</g>
<g
   id="g44">
</g>
</svg>
