<?xml version="1.0" encoding="UTF-8" standalone="no"?>
<svg
   xmlns:dc="http://purl.org/dc/elements/1.1/"
   xmlns:cc="http://creativecommons.org/ns#"
   xmlns:rdf="http://www.w3.org/1999/02/22-rdf-syntax-ns#"
   xmlns:svg="http://www.w3.org/2000/svg"
   xmlns="http://www.w3.org/2000/svg"
   xmlns:sodipodi="http://sodipodi.sourceforge.net/DTD/sodipodi-0.dtd"
   xmlns:inkscape="http://www.inkscape.org/namespaces/inkscape"
   version="1.1"
   id="Capa_1"
   x="0px"
   y="0px"
   viewBox="0 0 226.081 226.081"
   preserveAspectRatio="xMidYMid meet"
   style="enable-background:new 0 0 226.081 226.081;"
   xml:space="preserve"
   sodipodi:docname="night_other.svg"
   inkscape:version="1.0.2 (e86c870879, 2021-01-15)"><metadata
   id="metadata45"><rdf:RDF><cc:Work
       rdf:about=""><dc:format>image/svg+xml</dc:format><dc:type
         rdf:resource="http://purl.org/dc/dcmitype/StillImage" /><dc:title></dc:title></cc:Work></rdf:RDF></metadata><defs
   id="defs43" /><sodipodi:namedview
   pagecolor="#ff00ff"
   bordercolor="#666666"
   borderopacity="1"
   objecttolerance="10"
   gridtolerance="10"
   guidetolerance="10"
   inkscape:pageopacity="0"
   inkscape:pageshadow="2"
   inkscape:window-width="3834"
   inkscape:window-height="2107"
   id="namedview41"
   showgrid="false"
   inkscape:zoom="4.4585791"
   inkscape:cx="69.865307"
   inkscape:cy="113.0405"
   inkscape:window-x="0"
   inkscape:window-y="22"
   inkscape:window-maximized="0"
   inkscape:current-layer="Capa_1" />
<g
   id="g8"
   style="fill:#ffffff;fill-opacity:1">
	<path
   d="M154.458,209.12c-40.112-15.475-66.03-53.191-66.03-96.085c0-42.89,25.918-80.604,66.03-96.079   c1.924-0.742,3.194-2.592,3.194-4.655s-1.269-3.913-3.193-4.656C141.317,2.572,127.648,0,113.831,0   C51.501,0,0.791,50.707,0.791,113.034c0,62.334,50.709,113.047,113.039,113.047c13.803,0,27.473-2.574,40.629-7.65   c1.924-0.743,3.193-2.593,3.193-4.656C157.653,211.712,156.383,209.862,154.458,209.12z M113.831,216.101   c-56.827,0-103.059-46.236-103.059-103.067C10.771,56.21,57.004,9.98,113.831,9.98c8.419,0,16.784,1.05,24.99,3.132   c-15.911,8.372-29.592,20.405-40.03,35.307c-13.308,18.998-20.342,41.342-20.342,64.615c0,23.272,7.034,45.616,20.341,64.617   c10.44,14.905,24.12,26.939,40.033,35.312C130.611,215.048,122.245,216.101,113.831,216.101z"
   id="path2"
   style="fill:#ffffff;fill-opacity:1" />
	<path
   d="M223.477,149.92l-19.347-15.972l2.179-24.988c0.165-1.892-0.758-3.714-2.381-4.699c-1.623-0.985-3.667-0.965-5.268,0.055   l-21.161,13.456l-23.11-9.799c-1.749-0.741-3.767-0.426-5.205,0.814c-1.439,1.24-2.049,3.189-1.575,5.028l6.277,24.299   l-16.459,18.928c-1.247,1.434-1.571,3.451-0.836,5.203c0.734,1.752,2.399,2.935,4.295,3.052l25.034,1.542l12.932,21.518   c0.907,1.509,2.535,2.42,4.276,2.42c0.137,0,0.276-0.006,0.414-0.017c1.893-0.157,3.533-1.375,4.23-3.142l9.206-23.346   l24.443-5.641c1.852-0.427,3.299-1.868,3.734-3.717C225.593,153.065,224.941,151.129,223.477,149.92z M192.176,155.137   c-1.601,0.369-2.918,1.503-3.521,3.032l-6.458,16.379l-9.074-15.098c-0.845-1.408-2.33-2.309-3.97-2.41l-17.557-1.082   l11.544-13.276c1.078-1.24,1.477-2.931,1.066-4.522l-4.405-17.052l16.216,6.875c1.511,0.64,3.24,0.498,4.625-0.384l14.846-9.44   l-1.528,17.533c-0.143,1.636,0.528,3.237,1.794,4.282l13.573,11.205L192.176,155.137z"
   id="path4"
   style="fill:#ffffff;fill-opacity:1" />
	<path
   d="M161.907,68.403l11.856,0.729l6.123,10.197c0.756,1.258,2.113,2.018,3.564,2.018c0.115,0,0.229-0.005,0.344-0.014   c1.578-0.131,2.945-1.146,3.526-2.618l4.363-11.06l11.579-2.674c1.542-0.356,2.748-1.557,3.112-3.097   c0.363-1.54-0.179-3.154-1.401-4.162l-9.167-7.569l1.038-11.833c0.138-1.576-0.63-3.095-1.983-3.917   c-1.351-0.821-3.052-0.804-4.389,0.044l-10.036,6.375l-10.945-4.641c-1.457-0.618-3.139-0.355-4.338,0.678   c-1.199,1.034-1.708,2.658-1.311,4.191l2.977,11.511l-7.793,8.962c-1.04,1.195-1.309,2.876-0.698,4.336   C158.939,67.32,160.327,68.306,161.907,68.403z M175.418,52.598l-1.415-5.469l5.196,2.203c1.258,0.533,2.699,0.414,3.853-0.318   l4.771-3.031l-0.494,5.623c-0.12,1.364,0.44,2.699,1.496,3.57l4.358,3.597l-5.502,1.271c-1.334,0.308-2.43,1.253-2.933,2.525   l-2.071,5.251l-2.909-4.846c-0.705-1.174-1.943-1.926-3.31-2.01l-5.625-0.346l3.697-4.252   C175.428,55.335,175.76,53.925,175.418,52.598z"
   id="path6"
   style="fill:#ffffff;fill-opacity:1" />
</g>
<g
   id="g10">
</g>
<g
   id="g12">
</g>
<g
   id="g14">
</g>
<g
   id="g16">
</g>
<g
   id="g18">
</g>
<g
   id="g20">
</g>
<g
   id="g22">
</g>
<g
   id="g24">
</g>
<g
   id="g26">
</g>
<g
   id="g28">
</g>
<g
   id="g30">
</g>
<g
   id="g32">
</g>
<g
   id="g34">
</g>
<g
   id="g36">
</g>
<g
   id="g38">
</g>
</svg>
