<?xml version="1.0" encoding="UTF-8" standalone="no"?>
<svg
   xmlns:dc="http://purl.org/dc/elements/1.1/"
   xmlns:cc="http://creativecommons.org/ns#"
   xmlns:rdf="http://www.w3.org/1999/02/22-rdf-syntax-ns#"
   xmlns:svg="http://www.w3.org/2000/svg"
   xmlns="http://www.w3.org/2000/svg"
   xmlns:sodipodi="http://sodipodi.sourceforge.net/DTD/sodipodi-0.dtd"
   xmlns:inkscape="http://www.inkscape.org/namespaces/inkscape"
   viewBox="0 0 1024 1024"
   preserveAspectRatio="xMidYMid meet"
   class="icon"
   version="1.1"
   id="svg4"
   sodipodi:docname="schedule_error.svg"
   inkscape:version="1.0.2 (e86c870879, 2021-01-15)">
  <metadata
     id="metadata10">
    <rdf:RDF>
      <cc:Work
         rdf:about="">
        <dc:format>image/svg+xml</dc:format>
        <dc:type
           rdf:resource="http://purl.org/dc/dcmitype/StillImage" />
        <dc:title></dc:title>
      </cc:Work>
    </rdf:RDF>
  </metadata>
  <defs
     id="defs8" />
  <sodipodi:namedview
     pagecolor="#ff00ff"
     bordercolor="#666666"
     borderopacity="1"
     objecttolerance="10"
     gridtolerance="10"
     guidetolerance="10"
     inkscape:pageopacity="0"
     inkscape:pageshadow="2"
     inkscape:window-width="3834"
     inkscape:window-height="2107"
     id="namedview6"
     showgrid="false"
     inkscape:zoom="0.984375"
     inkscape:cx="316.44444"
     inkscape:cy="512"
     inkscape:window-x="0"
     inkscape:window-y="22"
     inkscape:window-maximized="0"
     inkscape:current-layer="svg4" />
  <path
     d="M 928,224 H 768 v -56 c 0,-4.4 -3.6,-8 -8,-8 h -56 c -4.4,0 -8,3.6 -8,8 v 56 H 548 v -56 c 0,-4.4 -3.6,-8 -8,-8 h -56 c -4.4,0 -8,3.6 -8,8 v 56 H 328 v -56 c 0,-4.4 -3.6,-8 -8,-8 h -56 c -4.4,0 -8,3.6 -8,8 v 56 H 96 c -17.7,0 -32,14.3 -32,32 v 576 c 0,17.7 14.3,32 32,32 h 832 c 17.7,0 32,-14.3 32,-32 V 256 c 0,-17.7 -14.3,-32 -32,-32 z"
     id="path2"
     style="fill:#ffffff;fill-opacity:1"
     sodipodi:nodetypes="scssssccssssccsssscssssssss" />
</svg>
