<?xml version="1.0" encoding="UTF-8" standalone="no"?>
<svg
   xmlns:dc="http://purl.org/dc/elements/1.1/"
   xmlns:cc="http://creativecommons.org/ns#"
   xmlns:rdf="http://www.w3.org/1999/02/22-rdf-syntax-ns#"
   xmlns:svg="http://www.w3.org/2000/svg"
   xmlns="http://www.w3.org/2000/svg"
   xmlns:sodipodi="http://sodipodi.sourceforge.net/DTD/sodipodi-0.dtd"
   xmlns:inkscape="http://www.inkscape.org/namespaces/inkscape"
   viewBox="0 0 1024 1024"
   class="icon"
   version="1.1"
   id="svg4"
   sodipodi:docname="schedule_on.svg"
   inkscape:version="1.0.2 (e86c870879, 2021-01-15)">
  <metadata
     id="metadata10">
    <rdf:RDF>
      <cc:Work
         rdf:about="">
        <dc:format>image/svg+xml</dc:format>
        <dc:type
           rdf:resource="http://purl.org/dc/dcmitype/StillImage" />
        <dc:title></dc:title>
      </cc:Work>
    </rdf:RDF>
  </metadata>
  <defs
     id="defs8" />
  <sodipodi:namedview
     pagecolor="#ff00ff"
     bordercolor="#666666"
     borderopacity="1"
     objecttolerance="10"
     gridtolerance="10"
     guidetolerance="10"
     inkscape:pageopacity="0"
     inkscape:pageshadow="2"
     inkscape:window-width="3834"
     inkscape:window-height="2107"
     id="namedview6"
     showgrid="false"
     inkscape:zoom="0.984375"
     inkscape:cx="316.44444"
     inkscape:cy="512"
     inkscape:window-x="0"
     inkscape:window-y="22"
     inkscape:window-maximized="0"
     inkscape:current-layer="svg4" />
  <path
     d="M928 224H768v-56c0-4.4-3.6-8-8-8h-56c-4.4 0-8 3.6-8 8v56H548v-56c0-4.4-3.6-8-8-8h-56c-4.4 0-8 3.6-8 8v56H328v-56c0-4.4-3.6-8-8-8h-56c-4.4 0-8 3.6-8 8v56H96c-17.7 0-32 14.3-32 32v576c0 17.7 14.3 32 32 32h832c17.7 0 32-14.3 32-32V256c0-17.7-14.3-32-32-32zm-40 568H136V296h120v56c0 4.4 3.6 8 8 8h56c4.4 0 8-3.6 8-8v-56h148v56c0 4.4 3.6 8 8 8h56c4.4 0 8-3.6 8-8v-56h148v56c0 4.4 3.6 8 8 8h56c4.4 0 8-3.6 8-8v-56h120v496zM416 496H232c-4.4 0-8 3.6-8 8v48c0 4.4 3.6 8 8 8h184c4.4 0 8-3.6 8-8v-48c0-4.4-3.6-8-8-8zm0 136H232c-4.4 0-8 3.6-8 8v48c0 4.4 3.6 8 8 8h184c4.4 0 8-3.6 8-8v-48c0-4.4-3.6-8-8-8zm308.2-177.4L620.6 598.3l-52.8-73.1c-3-4.2-7.8-6.6-12.9-6.6H500c-6.5 0-10.3 7.4-6.5 12.7l114.1 158.2a15.9 15.9 0 0 0 25.8 0l165-228.7c3.8-5.3 0-12.7-6.5-12.7H737c-5-.1-9.8 2.4-12.8 6.5z"
     id="path2" />
</svg>
