<?xml version="1.0" encoding="UTF-8" standalone="no"?>
<svg
   xmlns:dc="http://purl.org/dc/elements/1.1/"
   xmlns:cc="http://creativecommons.org/ns#"
   xmlns:rdf="http://www.w3.org/1999/02/22-rdf-syntax-ns#"
   xmlns:svg="http://www.w3.org/2000/svg"
   xmlns="http://www.w3.org/2000/svg"
   xmlns:sodipodi="http://sodipodi.sourceforge.net/DTD/sodipodi-0.dtd"
   xmlns:inkscape="http://www.inkscape.org/namespaces/inkscape"
   version="1.1"
   id="Layer_1"
   x="0px"
   y="0px"
   viewBox="0 0 512.349 512.349"
   style="enable-background:new 0 0 512.349 512.349;"
   xml:space="preserve"
   sodipodi:docname="trumpet_other.svg"
   inkscape:version="1.0.2 (e86c870879, 2021-01-15)"><metadata
   id="metadata3923"><rdf:RDF><cc:Work
       rdf:about=""><dc:format>image/svg+xml</dc:format><dc:type
         rdf:resource="http://purl.org/dc/dcmitype/StillImage" /><dc:title></dc:title></cc:Work></rdf:RDF></metadata><defs
   id="defs3921" /><sodipodi:namedview
   pagecolor="#ff00ff"
   bordercolor="#666666"
   borderopacity="1"
   objecttolerance="10"
   gridtolerance="10"
   guidetolerance="10"
   inkscape:pageopacity="0"
   inkscape:pageshadow="2"
   inkscape:window-width="1914"
   inkscape:window-height="2107"
   id="namedview3919"
   showgrid="false"
   inkscape:zoom="1.2157272"
   inkscape:cx="297.90649"
   inkscape:cy="506.62329"
   inkscape:window-x="3840"
   inkscape:window-y="22"
   inkscape:window-maximized="0"
   inkscape:current-layer="g3882" />
<g
   transform="translate(1 1)"
   id="g3886">
	<g
   id="g3884">
		<g
   id="g3882">
			<path
   d="M457.415,129.909c-3.413-3.413-8.533-4.267-11.947-0.853s-4.267,8.533-0.853,11.947c5.12,5.12,12.8,17.92,16.213,23.893     c1.707,3.413,4.267,5.12,7.68,5.12c1.707,0,2.56,0,3.413-1.707c3.413-1.707,5.12-6.827,3.413-11.093     C471.921,149.536,462.535,135.883,457.415,129.909z"
   id="path3876"
   style="fill:#ffffff;fill-opacity:1" />
			<path
   d="m 498.375,13.856 c 0,-5.973 -4.267,-11.093 -9.387,-13.653 -5.973,-2.56 -12.8,-0.853 -17.067,3.413 l -45.227,46.08 C 409.846,66.544 388.009,75.889 366.107,76.127 V 54.816 c 0,-11.947 -9.387,-21.333 -21.333,-21.333 h -34.133 c -11.947,0 -21.333,9.387 -21.333,21.333 v 21.333 h -25.6 -85.333 -25.6 V 54.816 c 0,-11.947 -9.387,-21.333 -21.333,-21.333 H 97.308 c -11.947,0 -21.333,9.387 -21.333,21.333 V 76.149 H 52.081 L 9.415,67.616 c -2.56,0 -5.12,0 -6.827,1.707 -2.56,1.707 -3.413,4.267 -3.413,6.827 v 68.267 c 0,2.56 0.853,5.12 3.413,6.827 0.853,0.853 3.413,1.707 5.12,1.707 h 1.707 l 42.667,-8.533 h 23.893 v 281.6 c 0,0 102.74986,63.07815 140.797,84.48 1.707,0.853 2.56,0.853 4.267,0.853 1.707,0 2.56,0 4.267,-0.853 l 140.798,-84.48 v -281.6 c 22.187,-0.853 44.373,8.533 60.587,25.6 l 45.227,46.08 c 2.56,3.413 6.827,5.12 11.093,5.12 1.707,0 3.413,0 5.12,-0.853 5.973,-2.56 9.387,-7.68 10.24,-13.653 17.07,-63.149 17.07,-129.709 0.004,-192.856 z m -209.067,79.36 v 34.133 h -25.6 V 93.216 Z m -2.175,51.2 c -7.628,29.358 -34.432,51.2 -66.091,51.2 -31.659,0 -58.463,-21.842 -66.091,-51.2 h 23.425 85.333 z m -40.492,-51.2 v 34.133 h -51.2 V 93.216 Z m -68.266,0 v 34.133 h -25.6 V 93.216 Z m -162.134,-6.827 25.6,5.12 v 37.547 l -25.6,5.12 z m 42.667,40.96 V 93.216 h 17.067 v 34.133 z m 162.133,365.227 -128,-71.68 V 135.883 84.683 54.816 c 0,-2.56 1.707,-4.267 4.267,-4.267 h 34.133 c 2.56,0 4.267,1.707 4.267,4.267 v 29.867 42.667 8.533 c 0,1.619 0.343,3.065 0.972,4.289 6.233,40.907 41.784,72.511 84.362,72.511 42.577,0 78.129,-31.604 84.362,-72.511 0.628,-1.224 0.972,-2.67 0.972,-4.289 V 127.35 84.683 54.816 c 0,-2.56 1.707,-4.267 4.267,-4.267 h 34.133 c 2.56,0 4.267,1.707 4.267,4.267 v 29.867 51.2 285.013 z m 261.12,-290.133 -43.52,-44.373 c -19.627,-19.627 -46.08,-30.72 -72.533,-30.72 V 93.216 c 26.453,0 52.907,-11.947 72.533,-31.573 l 43.52,-44.373 c 16.214,60.586 16.214,124.586 0,185.173 z"
   id="path3878"
   style="fill:#ffffff;fill-opacity:1"
   sodipodi:nodetypes="cccccssssccccssssccccsscscccccscccccscccccccccsccccccccccccccccccccccccccccssssccscscsccssssccccccccccc" />
			
		</g>
	</g>
</g>
<g
   id="g3888">
</g>
<g
   id="g3890">
</g>
<g
   id="g3892">
</g>
<g
   id="g3894">
</g>
<g
   id="g3896">
</g>
<g
   id="g3898">
</g>
<g
   id="g3900">
</g>
<g
   id="g3902">
</g>
<g
   id="g3904">
</g>
<g
   id="g3906">
</g>
<g
   id="g3908">
</g>
<g
   id="g3910">
</g>
<g
   id="g3912">
</g>
<g
   id="g3914">
</g>
<g
   id="g3916">
</g>
</svg>
