<?xml version="1.0" encoding="UTF-8" standalone="no"?>
<svg
   xmlns:dc="http://purl.org/dc/elements/1.1/"
   xmlns:cc="http://creativecommons.org/ns#"
   xmlns:rdf="http://www.w3.org/1999/02/22-rdf-syntax-ns#"
   xmlns:svg="http://www.w3.org/2000/svg"
   xmlns="http://www.w3.org/2000/svg"
   xmlns:sodipodi="http://sodipodi.sourceforge.net/DTD/sodipodi-0.dtd"
   xmlns:inkscape="http://www.inkscape.org/namespaces/inkscape"
   version="1.1"
   id="Layer_1"
   x="0px"
   y="0px"
   viewBox="0 0 512.349 512.349"
   preserveAspectRatio="xMidYMid meet"
   style="enable-background:new 0 0 512.349 512.349;"
   xml:space="preserve"
   sodipodi:docname="trumpet_on.svg"
   inkscape:version="1.0.2 (e86c870879, 2021-01-15)"><metadata
   id="metadata3923"><rdf:RDF><cc:Work
       rdf:about=""><dc:format>image/svg+xml</dc:format><dc:type
         rdf:resource="http://purl.org/dc/dcmitype/StillImage" /><dc:title></dc:title></cc:Work></rdf:RDF></metadata><defs
   id="defs3921" /><sodipodi:namedview
   pagecolor="#ff00ff"
   bordercolor="#666666"
   borderopacity="1"
   objecttolerance="10"
   gridtolerance="10"
   guidetolerance="10"
   inkscape:pageopacity="0"
   inkscape:pageshadow="2"
   inkscape:window-width="1914"
   inkscape:window-height="2107"
   id="namedview3919"
   showgrid="false"
   inkscape:zoom="1.9674089"
   inkscape:cx="158.33007"
   inkscape:cy="256.1745"
   inkscape:window-x="3840"
   inkscape:window-y="22"
   inkscape:window-maximized="0"
   inkscape:current-layer="Layer_1" />
<g
   transform="translate(1 1)"
   id="g3886">
	<g
   id="g3884">
		<g
   id="g3882">
			<path
   d="M457.415,129.909c-3.413-3.413-8.533-4.267-11.947-0.853s-4.267,8.533-0.853,11.947c5.12,5.12,12.8,17.92,16.213,23.893     c1.707,3.413,4.267,5.12,7.68,5.12c1.707,0,2.56,0,3.413-1.707c3.413-1.707,5.12-6.827,3.413-11.093     C471.921,149.536,462.535,135.883,457.415,129.909z"
   id="path3876" />
			<path
   d="M498.375,13.856c0-5.973-4.267-11.093-9.387-13.653c-5.973-2.56-12.8-0.853-17.067,3.413l-45.227,46.08     c-16.848,16.848-38.685,26.193-60.587,26.431V54.816c0-11.947-9.387-21.333-21.333-21.333h-34.133     c-11.947,0-21.333,9.387-21.333,21.333v21.333h-25.6h-85.333h-25.6V54.816c0-11.947-9.387-21.333-21.333-21.333H97.308     c-11.947,0-21.333,9.387-21.333,21.333v21.333H52.081L9.415,67.616c-2.56,0-5.12,0-6.827,1.707     c-2.56,1.707-3.413,4.267-3.413,6.827v68.267c0,2.56,0.853,5.12,3.413,6.827c0.853,0.853,3.413,1.707,5.12,1.707     c0.853,0,0.853,0,1.707,0l42.667-8.533h23.893v281.6v76.8c0,5.12,3.413,8.533,8.533,8.533c5.12,0,8.533-3.413,8.533-8.533v-61.92     l17.125,9.633c-0.035,0.354-0.059,0.714-0.059,1.087v51.2c0,5.12,3.413,8.533,8.533,8.533s8.533-3.413,8.533-8.533v-42.72     l17.067,9.6v33.12c0,5.12,3.413,8.533,8.533,8.533c5.12,0,8.533-3.413,8.533-8.533v-23.52l17.067,9.6v13.92     c0,5.12,3.413,8.533,8.533,8.533s8.533-3.413,8.533-8.533v-4.32l21.333,12c1.707,0.853,2.56,0.853,4.267,0.853     s2.56,0,4.267-0.853l21.333-12v4.32c0,5.12,3.413,8.533,8.533,8.533s8.533-3.413,8.533-8.533v-13.92l17.067-9.6v23.52     c0,5.12,3.413,8.533,8.533,8.533s8.533-3.413,8.533-8.533v-33.12l17.067-9.6v42.72c0,5.12,3.413,8.533,8.533,8.533     s8.533-3.413,8.533-8.533v-51.2c0-0.373-0.023-0.733-0.059-1.087l17.126-9.633v61.92c0,5.12,3.413,8.533,8.533,8.533     s8.533-3.413,8.533-8.533v-76.8v-281.6c22.187-0.853,44.373,8.533,60.587,25.6l45.227,46.08c2.56,3.413,6.827,5.12,11.093,5.12     c1.707,0,3.413,0,5.12-0.853c5.973-2.56,9.387-7.68,10.24-13.653C515.441,143.563,515.441,77.003,498.375,13.856z      M289.308,93.216v34.133h-25.6V93.216H289.308z M287.133,144.416c-7.628,29.358-34.432,51.2-66.091,51.2     c-31.659,0-58.463-21.842-66.091-51.2h23.425h85.333H287.133z M246.641,93.216v34.133h-51.2V93.216H246.641z M178.375,93.216     v34.133h-25.6V93.216H178.375z M16.241,86.389l25.6,5.12v37.547l-25.6,5.12V86.389z M58.908,127.349V93.216h17.067v34.133H58.908     z M221.041,492.576l-128-71.68V135.883v-51.2V54.816c0-2.56,1.707-4.267,4.267-4.267h34.133c2.56,0,4.267,1.707,4.267,4.267     v29.867v42.667v8.533c0,1.619,0.343,3.065,0.972,4.289c6.233,40.907,41.784,72.511,84.362,72.511     c42.577,0,78.129-31.604,84.362-72.511c0.628-1.224,0.972-2.67,0.972-4.289v-8.533V84.683V54.816c0-2.56,1.707-4.267,4.267-4.267     h34.133c2.56,0,4.267,1.707,4.267,4.267v29.867v51.2v285.013L221.041,492.576z M482.161,202.443l-43.52-44.373     c-19.627-19.627-46.08-30.72-72.533-30.72V93.216c26.453,0,52.907-11.947,72.533-31.573l43.52-44.373     C498.375,77.856,498.375,141.856,482.161,202.443z"
   id="path3878" />
			<path
   d="M309.788,320.203l3.413-16.213c0-3.413-0.853-6.827-4.267-8.533c-2.56-1.707-6.827-1.707-9.387,0.853     c0,0-21.333,16.213-53.76,18.773c2.56-32.427,18.773-53.76,18.773-53.76c2.56-2.56,2.56-5.973,0.853-9.387     c-1.707-3.413-5.12-5.12-8.533-4.267l-16.213,3.413l-13.653-17.067c-3.413-4.267-10.24-4.267-13.653,0l-13.653,17.067     l-16.213-3.413c-3.413,0-6.827,0.853-8.533,4.267c-1.707,2.56-1.707,6.827,0.853,9.387c0,0,16.213,21.333,18.773,53.76     c-32.427-2.56-53.76-18.773-53.76-18.773c-2.56-2.56-5.973-2.56-9.387-0.853s-5.12,5.12-4.267,8.533l3.413,16.213l-17.067,13.653     c-2.56,1.707-3.413,4.267-3.413,6.827s0.853,5.12,4.267,7.68l17.067,13.653l-3.413,16.213c0,3.413,0.853,6.827,4.267,8.533     c2.56,1.707,6.827,1.707,9.387-0.853c0,0,21.333-16.213,53.76-18.773c-2.56,32.427-18.773,53.76-18.773,53.76     c-2.56,2.56-2.56,5.973-0.853,9.387s5.12,5.12,8.533,4.267l16.213-3.413l13.653,17.067c1.707,2.56,4.267,3.413,6.827,3.413     s5.12-0.853,5.973-4.267l13.653-17.067l16.213,3.413c3.413,0,6.827-0.853,8.533-4.267c1.707-2.56,1.707-6.827-0.853-9.387     c0,0-16.213-21.333-18.773-53.76c32.427,2.56,53.76,18.773,53.76,18.773c2.56,2.56,5.973,2.56,9.387,0.853s5.12-5.12,4.267-8.533     l-3.413-16.213l17.067-13.653c2.56-1.707,3.413-4.267,3.413-6.827s-1.707-5.12-3.413-6.827L309.788,320.203z M296.988,350.923     c-2.56,2.56-4.267,5.12-3.413,8.533l0.853,2.56c-12.8-5.973-32.427-12.8-56.32-12.8c-5.12,0-8.533,3.413-8.533,8.533     c0,23.893,6.827,43.52,12.8,56.32l-2.56-0.853c-3.413,0-6.827,0.853-8.533,3.413l-10.24,12.8l-10.24-12.8     c-1.707-2.56-4.267-3.413-6.827-3.413c-0.853,0-0.853,0-1.707,0l-2.56,0.853c5.973-12.8,12.8-32.427,12.8-56.32     c0-5.12-3.413-8.533-8.533-8.533c-23.893,0-43.52,6.827-56.32,12.8l0.853-2.56c0-3.413-0.853-6.827-3.413-8.533l-12.8-10.24     l12.8-10.24c2.56-2.56,4.267-5.12,3.413-8.533l-0.853-2.56c12.8,5.973,32.427,12.8,56.32,12.8c5.12,0,8.533-3.413,8.533-8.533     c0-23.893-6.827-43.52-12.8-56.32l2.56,0.853c3.413,0,6.827-0.853,8.533-3.413l10.24-12.8l10.24,12.8     c2.56,2.56,5.12,4.267,8.533,3.413l2.56-0.853c-5.973,12.8-12.8,32.427-12.8,56.32c0,5.12,3.413,8.533,8.533,8.533     c23.893,0,43.52-6.827,56.32-12.8l-0.853,2.56c0,3.413,0.853,6.827,3.413,8.533l12.8,10.24L296.988,350.923z"
   id="path3880" />
		</g>
	</g>
</g>
<g
   id="g3888">
</g>
<g
   id="g3890">
</g>
<g
   id="g3892">
</g>
<g
   id="g3894">
</g>
<g
   id="g3896">
</g>
<g
   id="g3898">
</g>
<g
   id="g3900">
</g>
<g
   id="g3902">
</g>
<g
   id="g3904">
</g>
<g
   id="g3906">
</g>
<g
   id="g3908">
</g>
<g
   id="g3910">
</g>
<g
   id="g3912">
</g>
<g
   id="g3914">
</g>
<g
   id="g3916">
</g>
</svg>
