<?xml version="1.0" encoding="UTF-8" standalone="no"?>
<svg
   xmlns:dc="http://purl.org/dc/elements/1.1/"
   xmlns:cc="http://creativecommons.org/ns#"
   xmlns:rdf="http://www.w3.org/1999/02/22-rdf-syntax-ns#"
   xmlns:svg="http://www.w3.org/2000/svg"
   xmlns="http://www.w3.org/2000/svg"
   xmlns:sodipodi="http://sodipodi.sourceforge.net/DTD/sodipodi-0.dtd"
   xmlns:inkscape="http://www.inkscape.org/namespaces/inkscape"
   version="1.1"
   id="Layer_1"
   x="0px"
   y="0px"
   viewBox="0 0 512.349 512.349"
   preserveAspectRatio="xMidYMid meet"
   style="enable-background:new 0 0 512.349 512.349;"
   xml:space="preserve"
   sodipodi:docname="trumpet_error.svg"
   inkscape:version="1.0.2 (e86c870879, 2021-01-15)"><metadata
   id="metadata969"><rdf:RDF><cc:Work
       rdf:about=""><dc:format>image/svg+xml</dc:format><dc:type
         rdf:resource="http://purl.org/dc/dcmitype/StillImage" /><dc:title></dc:title></cc:Work></rdf:RDF></metadata><defs
   id="defs967" /><sodipodi:namedview
   pagecolor="#ff00ff"
   bordercolor="#666666"
   borderopacity="1"
   objecttolerance="10"
   gridtolerance="10"
   guidetolerance="10"
   inkscape:pageopacity="0"
   inkscape:pageshadow="2"
   inkscape:window-width="1914"
   inkscape:window-height="2107"
   id="namedview965"
   showgrid="false"
   inkscape:zoom="2.6443237"
   inkscape:cx="256.1745"
   inkscape:cy="287.25206"
   inkscape:window-x="3840"
   inkscape:window-y="22"
   inkscape:window-maximized="0"
   inkscape:current-layer="g928"
   inkscape:document-rotation="0" />
<g
   transform="translate(1 1)"
   id="g932"
   style="fill:#fffeff;fill-opacity:1">
	<g
   id="g930"
   style="fill:#fffeff;fill-opacity:1">
		<g
   id="g928"
   style="fill:#fffeff;fill-opacity:1">

			<path
   d="m 498.375,13.856 c 0,-5.973 -4.267,-11.093 -9.387,-13.653 -5.973,-2.56 -12.8,-0.853 -17.067,3.413 l -45.227,46.08 C 409.846,66.544 388.009,75.889 366.107,76.127 V 54.816 c 0,-11.947 -9.387,-21.333 -21.333,-21.333 h -34.133 c -11.947,0 -21.333,9.387 -21.333,21.333 v 21.333 h -25.6 -85.333 -25.6 V 54.816 c 0,-11.947 -9.387,-21.333 -21.333,-21.333 H 97.308 c -11.947,0 -21.333,9.387 -21.333,21.333 V 76.149 H 52.081 L 9.415,67.616 c -2.56,0 -5.12,0 -6.827,1.707 -2.56,1.707 -3.413,4.267 -3.413,6.827 v 68.267 c 0,2.56 0.853,5.12 3.413,6.827 0.853,0.853 3.413,1.707 5.12,1.707 h 1.707 l 42.667,-8.533 h 23.893 v 281.6 c 0,0 99.65196,61.33555 140.797,84.48 1.707,0.853 2.56,0.853 4.267,0.853 1.707,0 2.56,0 4.267,-0.853 40.65149,-26.04176 140.798,-84.48 140.798,-84.48 v -281.6 c 22.187,-0.853 44.373,8.533 60.587,25.6 l 45.227,46.08 c 2.56,3.413 6.827,5.12 11.093,5.12 1.707,0 3.413,0 5.12,-0.853 5.973,-2.56 9.387,-7.68 10.24,-13.653 17.07,-63.149 17.07,-129.709 0.004,-192.856 z"
   id="path924"
   style="fill:#fffeff;fill-opacity:1"
   sodipodi:nodetypes="cccccssssccccssssccccsscscccccscccccsccc" />

		</g>
	</g>
</g>
<g
   id="g934">
</g>
<g
   id="g936">
</g>
<g
   id="g938">
</g>
<g
   id="g940">
</g>
<g
   id="g942">
</g>
<g
   id="g944">
</g>
<g
   id="g946">
</g>
<g
   id="g948">
</g>
<g
   id="g950">
</g>
<g
   id="g952">
</g>
<g
   id="g954">
</g>
<g
   id="g956">
</g>
<g
   id="g958">
</g>
<g
   id="g960">
</g>
<g
   id="g962">
</g>
</svg>
