<?xml version="1.0" encoding="UTF-8" standalone="no"?>
<svg
   xmlns:dc="http://purl.org/dc/elements/1.1/"
   xmlns:cc="http://creativecommons.org/ns#"
   xmlns:rdf="http://www.w3.org/1999/02/22-rdf-syntax-ns#"
   xmlns:svg="http://www.w3.org/2000/svg"
   xmlns="http://www.w3.org/2000/svg"
   xmlns:sodipodi="http://sodipodi.sourceforge.net/DTD/sodipodi-0.dtd"
   xmlns:inkscape="http://www.inkscape.org/namespaces/inkscape"
   version="1.1"
   viewBox="0 0 512 512"
   preserveAspectRatio="xMidYMid meet"
   enable-background="new 0 0 512 512"
   id="svg10"
   sodipodi:docname="tv_on_other.svg"
   inkscape:version="1.0.2 (e86c870879, 2021-01-15)">
  <metadata
     id="metadata16">
    <rdf:RDF>
      <cc:Work
         rdf:about="">
        <dc:format>image/svg+xml</dc:format>
        <dc:type
           rdf:resource="http://purl.org/dc/dcmitype/StillImage" />
        <dc:title></dc:title>
      </cc:Work>
    </rdf:RDF>
  </metadata>
  <defs
     id="defs14" />
  <sodipodi:namedview
     pagecolor="#ff06ff"
     bordercolor="#666666"
     borderopacity="1"
     objecttolerance="10"
     gridtolerance="10"
     guidetolerance="10"
     inkscape:pageopacity="0"
     inkscape:pageshadow="2"
     inkscape:window-width="3834"
     inkscape:window-height="2107"
     id="namedview12"
     showgrid="false"
     inkscape:pagecheckerboard="false"
     inkscape:zoom="1.96875"
     inkscape:cx="158.22222"
     inkscape:cy="256"
     inkscape:window-x="3840"
     inkscape:window-y="22"
     inkscape:window-maximized="0"
     inkscape:current-layer="g6" />
  <g
     id="g8"
     style="fill:#ffffff;fill-opacity:1">
    <g
       id="g6"
       style="fill:#ffffff;fill-opacity:1">
      <path
         d="m460.2,360.7h-74c-0.3-71.5-58.6-129.5-130.1-129.5-71.6,0-129.8,58-130.1,129.5h-74v-308.9h408.3v308.9h-0.1zm-293.5,0c0.3-49 40.3-88.7 89.3-88.7s89,39.7 89.3,88.7h-178.6zm313.9-349.7h-449.2c-11.3,0-20.4,9.1-20.4,20.4v349.7c0,11.3 9.1,20.4 20.4,20.4h204.2v58.6h-69.9c-11.3,0-20.4,9.1-20.4,20.4 0,11.3 9.1,20.4 20.4,20.4h180.6c11.3,0 20.4-9.1 20.4-20.4 0-11.3-9.1-20.4-20.4-20.4h-69.9v-58.6h204.2c11.3,0 20.4-9.1 20.4-20.4v-349.7c5.68434e-14-11.3-9.1-20.4-20.4-20.4z"
         id="path2"
         style="fill:#ffffff;fill-opacity:1" />
      <path
         d="m256,118.9c12.8,0 23.1,10.4 23.1,23.1 0,12.8-10.4,23.1-23.1,23.1-12.8,0-23.1-10.4-23.1-23.1 0-12.8 10.3-23.1 23.1-23.1zm0,87c35.3,0 64-28.7 64-64 0-35.3-28.7-64-64-64-35.3,0-64,28.7-64,64 0,35.3 28.7,64 64,64z"
         id="path4"
         style="fill:#ffffff;fill-opacity:1" />
    </g>
  </g>
</svg>
