<?xml version="1.0" encoding="UTF-8" standalone="no"?>
<svg
   xmlns:dc="http://purl.org/dc/elements/1.1/"
   xmlns:cc="http://creativecommons.org/ns#"
   xmlns:rdf="http://www.w3.org/1999/02/22-rdf-syntax-ns#"
   xmlns:svg="http://www.w3.org/2000/svg"
   xmlns="http://www.w3.org/2000/svg"
   xmlns:sodipodi="http://sodipodi.sourceforge.net/DTD/sodipodi-0.dtd"
   xmlns:inkscape="http://www.inkscape.org/namespaces/inkscape"
   version="1.1"
   id="Layer_1"
   x="0px"
   y="0px"
   viewBox="0 0 512 512"
   preserveAspectRatio="xMidYMid meet"
   style="enable-background:new 0 0 512 512;"
   xml:space="preserve"
   sodipodi:docname="fan_on.svg"
   inkscape:version="1.0.2 (e86c870879, 2021-01-15)"><metadata
   id="metadata55"><rdf:RDF><cc:Work
       rdf:about=""><dc:format>image/svg+xml</dc:format><dc:type
         rdf:resource="http://purl.org/dc/dcmitype/StillImage" /><dc:title></dc:title></cc:Work></rdf:RDF></metadata><defs
   id="defs53" /><sodipodi:namedview
   pagecolor="#ff00ff"
   bordercolor="#666666"
   borderopacity="1"
   objecttolerance="10"
   gridtolerance="10"
   guidetolerance="10"
   inkscape:pageopacity="0"
   inkscape:pageshadow="2"
   inkscape:window-width="3834"
   inkscape:window-height="2107"
   id="namedview51"
   showgrid="false"
   inkscape:zoom="1.96875"
   inkscape:cx="60.444442"
   inkscape:cy="215.36508"
   inkscape:window-x="0"
   inkscape:window-y="22"
   inkscape:window-maximized="0"
   inkscape:current-layer="Layer_1"
   inkscape:pagecheckerboard="false"
   inkscape:document-rotation="0" />
<g
   id="g6"
   style="fill:#020000;fill-opacity:1">
	<g
   id="g4"
   style="fill:#020000;fill-opacity:1">
		<path
   d="M388.586,193.605c-5.107-9.69-14.221-15.718-25-16.544l-43.281-3.317c-1.999-19.768-12.945-36.94-28.725-47.373    l19.38-40.446c4.678-9.753,4.018-20.657-1.821-29.918c-8.33-13.238-25.984-21.452-46.065-21.452h-14.159    c-20.082,0-37.735,8.215-46.065,21.452c-5.829,9.261-6.499,20.165-1.821,29.918l19.391,40.446    c-15.781,10.433-26.727,27.606-28.725,47.373l-43.292,3.317c-10.779,0.827-19.893,6.854-24.989,16.544    c-7.294,13.824-5.588,33.225,4.447,50.617l7.084,12.264c10.391,17.999,26.842,29.186,42.915,29.186    c10.381,0,19.684-4.887,25.513-13.405l23.472-34.282c8.769,4.447,18.669,6.959,29.154,6.959c10.486,0,20.385-2.511,29.154-6.959    l23.462,34.282c5.839,8.518,15.132,13.405,25.513,13.405c16.084,0,32.524-11.187,42.926-29.186l7.074-12.264    C394.174,226.83,395.88,207.429,388.586,193.605z M177.652,254.279c-3.307-0.188-10.318-4.489-15.519-13.489l-7.074-12.264    c-5.651-9.784-5.18-17.905-3.956-20.186l45.113-3.464c1.81,4.385,4.092,8.539,6.781,12.38L177.652,254.279z M248.915,65.948    h14.159c11.302,0,18.093,4.468,19.454,6.666l-20.751,43.313c-1.905-0.178-3.83-0.262-5.777-0.262    c-1.946,0-3.872,0.084-5.776,0.262l-20.762-43.313C230.822,70.416,237.624,65.948,248.915,65.948z M267.113,211.635    c-3.474,1.245-7.221,1.915-11.113,1.915c-3.903,0-7.65-0.67-11.124-1.915c-12.882-4.583-22.122-16.911-22.122-31.331    c0-3.139,0.44-6.174,1.256-9.052c1.779-6.31,5.4-11.867,10.224-16.053c5.839-5.075,13.447-8.141,21.766-8.141    c8.309,0,15.917,3.066,21.756,8.131c4.835,4.186,8.455,9.753,10.234,16.074c0.816,2.878,1.256,5.912,1.256,9.041    C289.246,194.735,279.995,207.052,267.113,211.635z M356.941,228.525l-7.074,12.264c-5.201,9-12.223,13.3-15.519,13.489    l-25.345-37.024c2.689-3.841,4.971-7.995,6.781-12.38l45.113,3.464C362.111,210.62,362.592,218.741,356.941,228.525z"
   id="path2"
   style="fill:#020000;fill-opacity:1" />
	</g>
</g>
<g
   id="g12"
   style="fill:#000002;fill-opacity:1">
	<g
   id="g10"
   style="fill:#000002;fill-opacity:1">
		<path
   d="M434.421,178.421C434.421,80.033,354.377,0,256,0C157.612,0,77.579,80.033,77.579,178.421    c0,92.182,70.28,168.27,160.076,177.49v63.708h-5.545c-32.712,0-59.334,26.622-59.334,59.334V512H333.93v-33.047    c0-32.712-26.622-59.334-59.334-59.334h-5.547l0.001-63.258C361.357,349.663,434.421,272.414,434.421,178.421z M274.595,451.012    c15.404,0,27.94,12.537,27.94,27.94v1.653h-98.367v-1.653c0-15.404,12.537-27.94,27.94-27.94H274.595z M256,325.448    c-81.069,0-147.027-65.958-147.027-147.027S174.931,31.394,256,31.394s147.027,65.958,147.027,147.027    S337.069,325.448,256,325.448z"
   id="path8"
   style="fill:#000002;fill-opacity:1" />
	</g>
</g>

<g
   id="g20">
</g>
<g
   id="g22">
</g>
<g
   id="g24">
</g>
<g
   id="g26">
</g>
<g
   id="g28">
</g>
<g
   id="g30">
</g>
<g
   id="g32">
</g>
<g
   id="g34">
</g>
<g
   id="g36">
</g>
<g
   id="g38">
</g>
<g
   id="g40">
</g>
<g
   id="g42">
</g>
<g
   id="g44">
</g>
<g
   id="g46">
</g>
<g
   id="g48">
</g>
<g
   id="g8729"
   style="fill:#000000;fill-opacity:1"
   transform="rotate(60,255.92849,180.16923)">
	<g
   id="g8727"
   style="fill:#000000;fill-opacity:1">
		<path
   d="m 388.586,193.605 c -5.107,-9.69 -14.221,-15.718 -25,-16.544 l -43.281,-3.317 c -1.999,-19.768 -12.945,-36.94 -28.725,-47.373 l 19.38,-40.446 c 4.678,-9.753 4.018,-20.657 -1.821,-29.918 -8.33,-13.238 -25.984,-21.452 -46.065,-21.452 h -14.159 c -20.082,0 -37.735,8.215 -46.065,21.452 -5.829,9.261 -6.499,20.165 -1.821,29.918 l 19.391,40.446 c -15.781,10.433 -26.727,27.606 -28.725,47.373 l -43.292,3.317 c -10.779,0.827 -19.893,6.854 -24.989,16.544 -7.294,13.824 -5.588,33.225 4.447,50.617 l 7.084,12.264 c 10.391,17.999 26.842,29.186 42.915,29.186 10.381,0 19.684,-4.887 25.513,-13.405 l 23.472,-34.282 c 8.769,4.447 18.669,6.959 29.154,6.959 10.486,0 20.385,-2.511 29.154,-6.959 l 23.462,34.282 c 5.839,8.518 15.132,13.405 25.513,13.405 16.084,0 32.524,-11.187 42.926,-29.186 l 7.074,-12.264 c 10.046,-17.392 11.752,-36.793 4.458,-50.617 z m -210.934,60.674 c -3.307,-0.188 -10.318,-4.489 -15.519,-13.489 l -7.074,-12.264 c -5.651,-9.784 -5.18,-17.905 -3.956,-20.186 l 45.113,-3.464 c 1.81,4.385 4.092,8.539 6.781,12.38 z M 248.915,65.948 h 14.159 c 11.302,0 18.093,4.468 19.454,6.666 l -20.751,43.313 c -1.905,-0.178 -3.83,-0.262 -5.777,-0.262 -1.946,0 -3.872,0.084 -5.776,0.262 L 229.462,72.614 c 1.36,-2.198 8.162,-6.666 19.453,-6.666 z m 18.198,145.687 c -3.474,1.245 -7.221,1.915 -11.113,1.915 -3.903,0 -7.65,-0.67 -11.124,-1.915 -12.882,-4.583 -22.122,-16.911 -22.122,-31.331 0,-3.139 0.44,-6.174 1.256,-9.052 1.779,-6.31 5.4,-11.867 10.224,-16.053 5.839,-5.075 13.447,-8.141 21.766,-8.141 8.309,0 15.917,3.066 21.756,8.131 4.835,4.186 8.455,9.753 10.234,16.074 0.816,2.878 1.256,5.912 1.256,9.041 0,14.431 -9.251,26.748 -22.133,31.331 z m 89.828,16.89 -7.074,12.264 c -5.201,9 -12.223,13.3 -15.519,13.489 l -25.345,-37.024 c 2.689,-3.841 4.971,-7.995 6.781,-12.38 l 45.113,3.464 c 1.214,2.282 1.695,10.403 -3.956,20.187 z"
   id="path8725"
   style="fill:#000000;fill-opacity:1" />
	</g>
</g></svg>
