<?xml version="1.0" encoding="UTF-8" standalone="no"?>
<svg
   xmlns:dc="http://purl.org/dc/elements/1.1/"
   xmlns:cc="http://creativecommons.org/ns#"
   xmlns:rdf="http://www.w3.org/1999/02/22-rdf-syntax-ns#"
   xmlns:svg="http://www.w3.org/2000/svg"
   xmlns="http://www.w3.org/2000/svg"
   xmlns:sodipodi="http://sodipodi.sourceforge.net/DTD/sodipodi-0.dtd"
   xmlns:inkscape="http://www.inkscape.org/namespaces/inkscape"
   version="1.1"
   id="Capa_1"
   x="0px"
   y="0px"
   viewBox="0 0 226.081 226.081"
   preserveAspectRatio="xMidYMid meet"
   style="enable-background:new 0 0 226.081 226.081;"
   xml:space="preserve"
   sodipodi:docname="night_off.svg"
   inkscape:version="1.0.2 (e86c870879, 2021-01-15)"><metadata
   id="metadata45"><rdf:RDF><cc:Work
       rdf:about=""><dc:format>image/svg+xml</dc:format><dc:type
         rdf:resource="http://purl.org/dc/dcmitype/StillImage" /><dc:title></dc:title></cc:Work></rdf:RDF></metadata><defs
   id="defs43" /><sodipodi:namedview
   pagecolor="#ff00ff"
   bordercolor="#666666"
   borderopacity="1"
   objecttolerance="10"
   gridtolerance="10"
   guidetolerance="10"
   inkscape:pageopacity="0"
   inkscape:pageshadow="2"
   inkscape:window-width="3834"
   inkscape:window-height="2107"
   id="namedview41"
   showgrid="false"
   inkscape:zoom="4.4585791"
   inkscape:cx="69.865307"
   inkscape:cy="113.0405"
   inkscape:window-x="0"
   inkscape:window-y="22"
   inkscape:window-maximized="0"
   inkscape:current-layer="g8" />
<g
   id="g8"
   style="fill:#ffffff;fill-opacity:1">
	<path
   d="M154.458,209.12c-40.112-15.475-66.03-53.191-66.03-96.085c0-42.89,25.918-80.604,66.03-96.079   c1.924-0.742,3.194-2.592,3.194-4.655s-1.269-3.913-3.193-4.656C141.317,2.572,127.648,0,113.831,0   C51.501,0,0.791,50.707,0.791,113.034c0,62.334,50.709,113.047,113.039,113.047c13.803,0,27.473-2.574,40.629-7.65   c1.924-0.743,3.193-2.593,3.193-4.656C157.653,211.712,156.383,209.862,154.458,209.12z M113.831,216.101   c-56.827,0-103.059-46.236-103.059-103.067C10.771,56.21,57.004,9.98,113.831,9.98c8.419,0,16.784,1.05,24.99,3.132   c-15.911,8.372-29.592,20.405-40.03,35.307c-13.308,18.998-20.342,41.342-20.342,64.615c0,23.272,7.034,45.616,20.341,64.617   c10.44,14.905,24.12,26.939,40.033,35.312C130.611,215.048,122.245,216.101,113.831,216.101z"
   id="path2"
   style="fill:#ffffff;fill-opacity:1" />


</g>
<g
   id="g10">
</g>
<g
   id="g12">
</g>
<g
   id="g14">
</g>
<g
   id="g16">
</g>
<g
   id="g18">
</g>
<g
   id="g20">
</g>
<g
   id="g22">
</g>
<g
   id="g24">
</g>
<g
   id="g26">
</g>
<g
   id="g28">
</g>
<g
   id="g30">
</g>
<g
   id="g32">
</g>
<g
   id="g34">
</g>
<g
   id="g36">
</g>
<g
   id="g38">
</g>
</svg>
