<?xml version="1.0" encoding="UTF-8" standalone="no"?>
<svg
   xmlns:dc="http://purl.org/dc/elements/1.1/"
   xmlns:cc="http://creativecommons.org/ns#"
   xmlns:rdf="http://www.w3.org/1999/02/22-rdf-syntax-ns#"
   xmlns:svg="http://www.w3.org/2000/svg"
   xmlns="http://www.w3.org/2000/svg"
   xmlns:sodipodi="http://sodipodi.sourceforge.net/DTD/sodipodi-0.dtd"
   xmlns:inkscape="http://www.inkscape.org/namespaces/inkscape"
   version="1.1"
   viewBox="0 0 512 512"
   preserveAspectRatio="xMidYMid meet"
   enable-background="new 0 0 512 512"
   id="svg10"
   sodipodi:docname="tv_off.svg"
   inkscape:version="1.0.2 (e86c870879, 2021-01-15)">
  <metadata
     id="metadata16">
    <rdf:RDF>
      <cc:Work
         rdf:about="">
        <dc:format>image/svg+xml</dc:format>
        <dc:type
           rdf:resource="http://purl.org/dc/dcmitype/StillImage" />
        <dc:title />
      </cc:Work>
    </rdf:RDF>
  </metadata>
  <defs
     id="defs14" />
  <sodipodi:namedview
     pagecolor="#ff06ff"
     bordercolor="#666666"
     borderopacity="1"
     objecttolerance="10"
     gridtolerance="10"
     guidetolerance="10"
     inkscape:pageopacity="0"
     inkscape:pageshadow="2"
     inkscape:window-width="3834"
     inkscape:window-height="2107"
     id="namedview12"
     showgrid="false"
     inkscape:pagecheckerboard="false"
     inkscape:zoom="1.96875"
     inkscape:cx="158.22222"
     inkscape:cy="256"
     inkscape:window-x="3840"
     inkscape:window-y="22"
     inkscape:window-maximized="0"
     inkscape:current-layer="g6"
     inkscape:document-rotation="0" />
  <g
     id="g8"
     style="fill:#ffffff;fill-opacity:1">
    <g
       id="g6"
       style="fill:#ffffff;fill-opacity:1">
      <path
         d="m 460.2,360.7 c -208.62569,0 -265.16164,0 -408.2,0 V 51.8 H 460.3 V 360.7 Z M 480.6,11 H 31.4 C 20.1,11 11,20.1 11,31.4 v 349.7 c 0,11.3 9.1,20.4 20.4,20.4 h 204.2 v 58.6 h -69.9 c -11.3,0 -20.4,9.1 -20.4,20.4 0,11.3 9.1,20.4 20.4,20.4 h 180.6 c 11.3,0 20.4,-9.1 20.4,-20.4 0,-11.3 -9.1,-20.4 -20.4,-20.4 h -69.9 v -58.6 h 204.2 c 11.3,0 20.4,-9.1 20.4,-20.4 V 31.4 C 501,20.1 491.9,11 480.6,11 Z"
         id="path2"
         style="fill:#ffffff;fill-opacity:1"
         sodipodi:nodetypes="ccccccsssssccssssssccssss" />
    </g>
  </g>
</svg>
